<svg width="138" height="16" viewBox="0 0 138 16" fill="none" xmlns="http://www.w3.org/2000/svg">
<path d="M3.02 15C0.8 15 3.08 10.06 3.04 8.16C3 6.14 1.76 5.24 1.62 3.3C1.54 2.06 2.06 0.979999 3.72 0.84C5.9 0.66 6.28 2.24 5.96 4.24C5.62 6.52 6.88 8.16 7.96 8.16C8.08 8.16 8.2 8.14 8.3 8.1C9.7 7.6 7.8 5.1 8.1 2.7C8.26 1.52 9.36 0.84 10.38 0.84C11.44 0.84 12.42 1.54 12.3 3.12C12.18 4.86 11.3 7.22 11.3 9.3C11.3 10.7 13.3 15 10.68 15H9.36C7.64 15 8.16 13.62 8.26 12.26C8.34 10.84 7.86 10.32 7.1 9.88C6.78 9.7 6.4 9.6 6.06 9.6C5.6 9.6 5.26 9.8 5.42 10.28C6.02 12.18 6.52 15 4.34 15H3.02ZM22.6667 3.88C22.6267 4.42 22.4067 4.78 22.1267 4.96C21.9267 5.06 21.6667 5.14 21.3867 5.14C21.1467 5.14 20.9067 5.1 20.6667 5C19.8067 4.64 19.4267 3.56 18.0867 3.56C16.9667 3.56 16.4667 4.14 16.4867 5C16.5467 6.32 18.2667 6.62 19.3067 6.62C20.4067 6.62 20.5867 7.34 20.5667 7.86C20.5267 8.56 20.1467 9.2 19.1267 9.2C18.9867 9.2 18.8267 9.18 18.6667 9.16C18.3667 9.12 18.0667 9.08 17.8067 9.08C16.6267 9.08 15.8867 9.58 15.9467 10.62C16.0067 11.6 16.6667 12.4 18.0067 12.4C19.8067 12.4 19.2467 11.12 20.8867 10.76C21.0267 10.72 21.1667 10.72 21.2867 10.72C22.3867 10.72 23.0067 11.8 22.9667 12.6C22.8867 13.9 20.8467 15.16 18.2867 15.2C18.2467 15.2 18.1867 15.2 18.1467 15.2C15.1667 15.2 13.0467 13.96 12.7867 11.54C12.5867 9.8 13.4067 7.94 15.5267 7.28C14.1667 6.62 13.4267 5.62 13.3267 4.36C13.1667 2.3 14.6067 0.76 17.3467 0.76C19.7867 0.76 22.7867 2.04 22.6667 3.88ZM25.94 0.799999C28.18 0.799999 27.94 3.76 29.76 6.72C30.02 7.14 30.22 7.34 30.36 7.34C30.52 7.34 30.6 7.08 30.58 6.64C30.46 4.46 31.42 1.06 33.54 0.819999C33.62 0.799999 33.72 0.799999 33.8 0.799999C35 0.799999 35.7 1.94 35.7 2.78C35.7 5.16 31.98 5.22 32.54 8.56C32.96 11.08 38 14.98 34.3 14.98H32.7C31.52 14.98 31.3 13.54 30.9 10.54C30.84 10.08 30.6 9.78 30.28 9.78C30.16 9.78 30 9.84 29.86 9.94C27.76 11.46 27.54 14.98 26.02 14.98C24.62 14.98 23.8 15.14 23.8 13.22C23.8 9.82 27.94 9.06 27.94 7.84C27.94 6.02 23.8 5.92 23.92 2.66C23.96 1.58 24.78 0.799999 25.94 0.799999ZM50.0377 2.92C50.0377 4.14 49.2577 4.82 48.1577 4.82C47.3177 4.82 46.4977 4.38 45.6777 4.38C44.7977 4.38 44.7977 5.36 44.7977 6.06C44.7977 8.26 45.4177 10.2 45.4177 12.62C45.4177 13.6 45.3377 15 44.1177 15H42.3977C40.1777 15 41.2577 10.8 41.5977 9C41.7577 8.06 41.9577 7.24 41.8777 5.86C41.8177 4.98 41.6177 4.56 40.7577 4.56C39.8577 4.56 38.9777 4.86 38.0977 4.86C36.9977 4.86 36.2977 4.1 36.2977 2.94C36.2977 1.56 36.8977 0.819999 38.2177 0.819999C39.5777 0.819999 40.9777 1.5 42.4577 1.5C44.1577 1.5 45.8377 0.819999 47.5777 0.819999C48.9377 0.819999 50.0377 1.28 50.0377 2.92ZM53.4578 13.28C53.6178 14.06 53.1578 15 52.1378 15C51.9778 15 51.8178 14.98 51.6378 14.94C50.6778 14.68 50.4178 13.44 50.8978 12.74C51.1578 12.36 51.6178 12.18 52.0778 12.18C52.6778 12.18 53.3178 12.54 53.4578 13.28ZM54.8339 3.1C55.3339 1.42 56.5139 0.799999 57.5739 0.799999C58.3539 0.799999 59.0739 1.16 59.3739 1.68C60.4739 3.62 58.6339 5.22 58.2339 7.08C57.7739 9.16 58.3339 10 58.9539 10C59.1539 10 59.3539 9.9 59.5339 9.74C60.3539 9.04 60.4739 6.9 61.4739 6.86C62.3739 6.82 62.4139 7.84 62.7139 8.58C63.2339 9.9 63.9339 10.48 64.4539 10.48C64.9939 10.48 65.3539 9.86 65.1139 8.74C64.6739 6.68 63.4139 5.64 63.4339 3.4C63.4539 1.64 64.6739 0.84 65.8139 0.84C66.2939 0.84 66.7739 0.999999 67.1339 1.28C68.4539 2.34 68.5139 3.48 68.5939 5C68.6939 7.42 67.2139 15 64.2539 15C62.3139 15 61.9139 13.02 61.6339 11.5C60.9339 13.14 60.0939 15 58.6939 15C58.5739 15 58.4539 14.98 58.3339 14.96C56.8739 14.64 55.0539 11.26 54.5739 7.24C54.3739 5.72 54.3939 4.54 54.8339 3.1ZM79.4441 3.88C79.4041 4.42 79.1841 4.78 78.9041 4.96C78.7041 5.06 78.4441 5.14 78.1641 5.14C77.9241 5.14 77.6841 5.1 77.4441 5C76.5841 4.64 76.2041 3.56 74.8641 3.56C73.7441 3.56 73.2441 4.14 73.2641 5C73.3241 6.32 75.0441 6.62 76.0841 6.62C77.1841 6.62 77.3641 7.34 77.3441 7.86C77.3041 8.56 76.9241 9.2 75.9041 9.2C75.7641 9.2 75.6041 9.18 75.4441 9.16C75.1441 9.12 74.8441 9.08 74.5841 9.08C73.4041 9.08 72.6641 9.58 72.7241 10.62C72.7841 11.6 73.4441 12.4 74.7841 12.4C76.5841 12.4 76.0241 11.12 77.6641 10.76C77.8041 10.72 77.9441 10.72 78.0641 10.72C79.1641 10.72 79.7841 11.8 79.7441 12.6C79.6641 13.9 77.6241 15.16 75.0641 15.2C75.0241 15.2 74.9641 15.2 74.9241 15.2C71.9441 15.2 69.8241 13.96 69.5641 11.54C69.3641 9.8 70.1841 7.94 72.3041 7.28C70.9441 6.62 70.2041 5.62 70.1041 4.36C69.9441 2.3 71.3841 0.76 74.1241 0.76C76.5641 0.76 79.5641 2.04 79.4441 3.88ZM84.0773 8.96C87.3173 8.46 87.7373 7.22 87.6973 5.84C87.6773 4.68 86.7773 3.96 85.8373 3.96C85.2773 3.96 84.6773 4.2 84.2373 4.76C83.1773 6.06 83.6973 7.46 84.0773 8.96ZM84.4373 0.999999C84.7973 0.879999 85.2373 0.799999 85.7173 0.799999C86.8573 0.799999 88.2173 1.22 88.9973 2.2C89.5573 2.92 89.9373 3.9 90.2173 5.46C90.8173 8.78 91.4773 15 89.4773 15H87.6173C85.1573 15 88.6973 11.06 87.0173 10.28C86.7973 10.18 86.3573 10.1 85.9173 10.1C85.2173 10.1 84.4973 10.3 84.6173 10.88C85.0773 13.28 84.9973 15 83.3373 15H81.2373C79.6173 15 80.7573 13.26 81.4173 10.46C81.9373 8.22 79.7573 2.72 84.4373 0.999999ZM104.354 2.92C104.354 4.14 103.574 4.82 102.474 4.82C101.634 4.82 100.814 4.38 99.9941 4.38C99.1141 4.38 99.1141 5.36 99.1141 6.06C99.1141 8.26 99.7341 10.2 99.7341 12.62C99.7341 13.6 99.6541 15 98.4341 15H96.7141C94.4941 15 95.5741 10.8 95.9141 9C96.0741 8.06 96.2741 7.24 96.1941 5.86C96.1341 4.98 95.9341 4.56 95.0741 4.56C94.1741 4.56 93.2941 4.86 92.4141 4.86C91.3141 4.86 90.6141 4.1 90.6141 2.94C90.6141 1.56 91.2141 0.819999 92.5341 0.819999C93.8941 0.819999 95.2941 1.5 96.7741 1.5C98.4741 1.5 100.154 0.819999 101.894 0.819999C103.254 0.819999 104.354 1.28 104.354 2.92ZM104.974 3.56C104.954 2.04 105.834 0.819999 107.274 0.819999C108.614 0.819999 109.894 1.72 109.714 3.44C109.554 4.92 107.414 8.04 108.794 8.5C108.894 8.52 108.994 8.54 109.114 8.54C109.954 8.54 111.454 7.96 111.894 7.26C112.654 6.06 111.274 4.88 111.094 3.46C110.854 1.8 111.854 0.86 113.334 0.819999C114.894 0.779999 115.494 2 115.314 3.48C115.114 5.08 114.354 6.1 114.394 7.96C114.414 9.68 115.074 11.66 115.114 13.62C115.134 14.72 114.774 15 114.174 15H112.194C110.434 15 112.354 12.12 111.634 10.68C111.454 10.34 110.414 10.1 109.614 10.1C109.274 10.1 108.994 10.14 108.834 10.24C107.734 11 109.974 15 108.354 15H106.174C105.534 15 105.354 14.54 105.334 13.56C105.294 11.66 106.334 9.76 106.294 7.9C106.274 6.22 104.994 5.02 104.974 3.56ZM125.46 3.88C125.42 4.42 125.2 4.78 124.92 4.96C124.72 5.06 124.46 5.14 124.18 5.14C123.94 5.14 123.7 5.1 123.46 5C122.6 4.64 122.22 3.56 120.88 3.56C119.76 3.56 119.26 4.14 119.28 5C119.34 6.32 121.06 6.62 122.1 6.62C123.2 6.62 123.38 7.34 123.36 7.86C123.32 8.56 122.94 9.2 121.92 9.2C121.78 9.2 121.62 9.18 121.46 9.16C121.16 9.12 120.86 9.08 120.6 9.08C119.42 9.08 118.68 9.58 118.74 10.62C118.8 11.6 119.46 12.4 120.8 12.4C122.6 12.4 122.04 11.12 123.68 10.76C123.82 10.72 123.96 10.72 124.08 10.72C125.18 10.72 125.8 11.8 125.76 12.6C125.68 13.9 123.64 15.16 121.08 15.2C121.04 15.2 120.98 15.2 120.94 15.2C117.96 15.2 115.84 13.96 115.58 11.54C115.38 9.8 116.2 7.94 118.32 7.28C116.96 6.62 116.22 5.62 116.12 4.36C115.96 2.3 117.4 0.76 120.14 0.76C122.58 0.76 125.58 2.04 125.46 3.88ZM129.273 5.1C129.313 5.76 129.453 6.56 129.513 6.78C129.973 6.84 130.513 6.9 131.033 6.9C132.293 6.9 133.533 6.56 133.613 5.12C133.673 3.72 132.553 3.16 131.213 3.16C129.893 3.16 129.213 3.76 129.273 5.1ZM130.093 15.12H127.653C125.813 15.12 127.233 11.82 127.193 7.7C127.173 6.72 127.073 5.86 126.813 2.86C126.673 1.1 128.793 0.84 130.553 0.84C132.573 0.84 135.093 1.38 136.053 3.3C137.353 5.92 135.653 8.36 132.693 8.4C134.273 8.56 135.673 9 136.753 10.44C137.913 11.98 137.833 15.12 136.473 15.12H134.573C132.953 15.12 134.413 13.08 133.113 11.3C132.573 10.58 131.773 10.18 131.153 10.18C130.473 10.18 130.013 10.64 130.353 11.68C130.873 13.34 131.593 15.12 130.093 15.12Z" fill="white"/>
</svg>
